<?xml version="1.0" encoding="UTF-8" standalone="no"?>
<!-- Generator: Adobe Illustrator 19.0.0, SVG Export Plug-In . SVG Version: 6.00 Build 0)  -->

<svg
   xmlns:dc="http://purl.org/dc/elements/1.1/"
   xmlns:cc="http://creativecommons.org/ns#"
   xmlns:rdf="http://www.w3.org/1999/02/22-rdf-syntax-ns#"
   xmlns:svg="http://www.w3.org/2000/svg"
   xmlns="http://www.w3.org/2000/svg"
   xmlns:sodipodi="http://sodipodi.sourceforge.net/DTD/sodipodi-0.dtd"
   xmlns:inkscape="http://www.inkscape.org/namespaces/inkscape"
   version="1.1"
   id="Layer_1"
   x="0px"
   y="0px"
   viewBox="0 0 239.47861 412.14746"
   xml:space="preserve"
   sodipodi:docname="left-arrow.svg"
   width="239.47861"
   height="412.14746"
   inkscape:version="0.92.5 (2060ec1f9f, 2020-04-08)"><metadata
   id="metadata3835"><rdf:RDF><cc:Work
       rdf:about=""><dc:format>image/svg+xml</dc:format><dc:type
         rdf:resource="http://purl.org/dc/dcmitype/StillImage" /><dc:title></dc:title></cc:Work></rdf:RDF></metadata><defs
   id="defs3833" /><sodipodi:namedview
   pagecolor="#ffffff"
   bordercolor="#666666"
   borderopacity="1"
   objecttolerance="10"
   gridtolerance="10"
   guidetolerance="10"
   inkscape:pageopacity="0"
   inkscape:pageshadow="2"
   inkscape:window-width="1920"
   inkscape:window-height="1006"
   id="namedview3831"
   showgrid="false"
   fit-margin-top="0"
   fit-margin-left="0"
   fit-margin-right="0"
   fit-margin-bottom="0"
   inkscape:zoom="1.1828229"
   inkscape:cx="-115.19384"
   inkscape:cy="141.40937"
   inkscape:window-x="0"
   inkscape:window-y="0"
   inkscape:window-maximized="1"
   inkscape:current-layer="Layer_1" />
<g
   id="g3798"
   style="fill:none;fill-opacity:1;stroke:#ffffff;stroke-width:8;stroke-miterlimit:4;stroke-dasharray:none;stroke-opacity:1"
   transform="matrix(0.80621641,0,0,-0.82429493,-78.589888,408.85029)">
	<g
   id="g3796"
   style="fill:none;fill-opacity:1;stroke:#ffffff;stroke-width:8;stroke-miterlimit:4;stroke-dasharray:none;stroke-opacity:1">
		<path
   d="M 198.608,246.104 382.664,62.04 c 5.068,-5.056 7.856,-11.816 7.856,-19.024 0,-7.212 -2.788,-13.968 -7.856,-19.032 L 366.536,7.864 C 361.476,2.792 354.712,0 347.504,0 340.296,0 333.54,2.792 328.476,7.864 L 109.328,227.008 c -5.084,5.08 -7.868,11.868 -7.848,19.084 -0.02,7.248 2.76,14.028 7.848,19.112 l 218.944,218.932 c 5.064,5.072 11.82,7.864 19.032,7.864 7.208,0 13.964,-2.792 19.032,-7.864 l 16.124,-16.12 c 10.492,-10.492 10.492,-27.572 0,-38.06 z"
   id="path3794"
   style="fill:none;fill-opacity:1;stroke:#ffffff;stroke-width:8;stroke-miterlimit:4;stroke-dasharray:none;stroke-opacity:1"
   inkscape:connector-curvature="0" />
	</g>
</g>
<g
   id="g3800"
   transform="translate(-105.12477,-29.781046)">
</g>
<g
   id="g3802"
   transform="translate(-105.12477,-29.781046)">
</g>
<g
   id="g3804"
   transform="translate(-105.12477,-29.781046)">
</g>
<g
   id="g3806"
   transform="translate(-105.12477,-29.781046)">
</g>
<g
   id="g3808"
   transform="translate(-105.12477,-29.781046)">
</g>
<g
   id="g3810"
   transform="translate(-105.12477,-29.781046)">
</g>
<g
   id="g3812"
   transform="translate(-105.12477,-29.781046)">
</g>
<g
   id="g3814"
   transform="translate(-105.12477,-29.781046)">
</g>
<g
   id="g3816"
   transform="translate(-105.12477,-29.781046)">
</g>
<g
   id="g3818"
   transform="translate(-105.12477,-29.781046)">
</g>
<g
   id="g3820"
   transform="translate(-105.12477,-29.781046)">
</g>
<g
   id="g3822"
   transform="translate(-105.12477,-29.781046)">
</g>
<g
   id="g3824"
   transform="translate(-105.12477,-29.781046)">
</g>
<g
   id="g3826"
   transform="translate(-105.12477,-29.781046)">
</g>
<g
   id="g3828"
   transform="translate(-105.12477,-29.781046)">
</g>
</svg>